<?xml version="1.0" standalone="no"?>
<!DOCTYPE svg PUBLIC "-//W3C//DTD SVG 20010904//EN"
 "http://www.w3.org/TR/2001/REC-SVG-20010904/DTD/svg10.dtd">
<svg version="1.0" xmlns="http://www.w3.org/2000/svg"
 width="1500.000000pt" height="1726.000000pt" viewBox="0 0 1500.000000 1726.000000"
 preserveAspectRatio="xMidYMid meet">

<g transform="translate(0.000000,1726.000000) scale(0.100000,-0.100000)"
fill="#000000" stroke="none">
<path d="M1831 17214 c-177 -679 -326 -1605 -401 -2499 -52 -622 -72 -1143
-73 -1845 -1 -552 9 -828 44 -1250 339 -4138 2400 -6801 5981 -7730 l188 -48
117 29 c1153 293 2199 787 3026 1431 412 321 827 732 1148 1138 993 1254 1576
2916 1739 4957 35 450 44 697 44 1273 -1 1146 -75 2194 -240 3390 -58 426
-170 1080 -184 1080 -4 0 -33 -21 -66 -46 -157 -123 -399 -271 -631 -388 -642
-321 -1357 -502 -2063 -522 -901 -26 -1717 216 -2452 728 -85 60 -278 212
-383 302 l-40 34 -120 -110 c-573 -528 -1298 -833 -2205 -930 -189 -20 -743
-17 -945 5 -693 75 -1343 279 -1858 584 -235 139 -364 234 -594 436 l-22 19
-10 -38z m5989 -773 c504 -339 1097 -584 1721 -710 831 -169 1712 -120 2481
140 271 91 565 228 773 358 54 34 99 60 100 59 4 -6 67 -412 105 -683 91 -654
151 -1263 192 -1960 17 -297 18 -1529 0 -1795 -63 -972 -180 -1729 -378 -2459
-654 -2412 -2062 -4040 -4234 -4896 -285 -112 -925 -315 -995 -315 -32 0 -371
92 -573 156 -771 243 -1481 592 -2097 1033 -293 209 -514 399 -806 690 -329
329 -582 636 -832 1007 -1116 1664 -1609 3960 -1442 6704 46 758 141 1536 286
2360 21 124 41 230 44 237 2 7 45 -13 112 -54 149 -90 419 -222 598 -293 900
-352 2002 -433 2989 -218 635 138 1254 417 1685 761 l45 35 55 -40 c31 -22
108 -75 171 -117z"/>
<path d="M7550 16139 c-50 -42 -279 -196 -384 -258 -1023 -601 -2426 -772
-3691 -451 -325 83 -581 175 -863 311 -106 51 -164 74 -167 66 -7 -22 -74
-449 -104 -672 -311 -2256 -191 -4273 356 -5960 529 -1631 1471 -2907 2732
-3700 573 -361 1191 -619 1876 -785 327 -79 292 -76 436 -35 1638 474 2870
1296 3707 2473 1269 1787 1683 4480 1287 8390 -14 134 -25 245 -25 247 0 2
-33 -15 -72 -37 -480 -273 -1122 -452 -1793 -499 -210 -15 -653 -6 -855 16
-880 97 -1652 390 -2345 889 -27 20 -52 36 -55 36 -3 -1 -21 -14 -40 -31z
m930 -1661 l0 -623 93 -43 c204 -95 423 -251 599 -429 127 -128 187 -202 281
-343 67 -102 197 -350 197 -377 0 -10 73 -13 375 -13 l375 0 -2 -787 -3 -788
-364 -2 -364 -2 -77 -158 c-220 -448 -556 -789 -982 -996 l-127 -62 0 -1172
-1 -1171 -71 -41 c-39 -23 -75 -41 -80 -41 -5 0 -9 611 -9 1520 l0 1520 -27 5
c-71 15 -175 60 -234 99 -285 191 -372 573 -198 867 171 292 539 400 844 250
128 -63 251 -190 303 -311 l17 -40 623 -3 622 -2 0 503 0 502 -609 0 -609 0
-38 -67 c-58 -105 -162 -202 -276 -257 -117 -56 -187 -70 -325 -64 -82 4 -125
11 -175 30 -197 73 -340 223 -404 423 -32 99 -36 244 -11 345 57 222 232 401
460 470 l37 12 0 854 0 854 -660 0 -660 0 0 -878 0 -878 58 -18 c178 -56 319
-180 397 -351 44 -94 58 -163 58 -270 0 -179 -60 -322 -188 -451 -138 -139
-302 -202 -494 -191 -243 14 -445 151 -551 373 l-31 64 -630 0 -629 0 0 -500
0 -500 666 -2 666 -3 24 54 c78 176 246 316 439 366 77 19 234 19 310 0 346
-89 556 -437 474 -784 -6 -25 -29 -84 -51 -131 -55 -116 -176 -237 -291 -293
-63 -31 -179 -66 -219 -67 -5 0 -8 -693 -8 -1540 l0 -1540 -62 31 c-34 17 -79
42 -100 55 l-38 24 0 1169 0 1168 -122 61 c-228 112 -412 247 -598 439 -185
190 -321 388 -421 613 l-47 105 -419 5 -418 5 -3 788 -2 787 423 0 423 0 37
88 c98 226 256 453 451 648 189 189 366 315 594 425 l102 49 0 620 0 620 840
0 840 0 0 -622z m-192 -394 l2 -821 -62 -23 c-222 -79 -397 -274 -443 -495
-94 -449 252 -857 705 -832 225 12 445 145 551 333 l31 54 584 0 585 0 -3
-462 -3 -463 -590 -2 -590 -3 -35 67 c-23 45 -64 97 -120 154 -73 74 -99 93
-180 132 -120 57 -180 71 -305 71 -117 0 -199 -19 -300 -69 -138 -68 -242
-172 -310 -310 -50 -101 -69 -183 -69 -300 0 -125 14 -185 71 -305 39 -81 58
-108 133 -181 70 -71 103 -94 171 -127 46 -22 105 -45 132 -52 l47 -13 0
-1518 0 -1519 -112 -54 c-136 -65 -264 -109 -397 -136 -83 -17 -111 -18 -176
-10 -153 19 -330 72 -490 145 l-75 34 0 1533 0 1533 82 23 c243 68 429 263
484 509 26 117 16 274 -24 381 -64 171 -177 298 -337 378 -117 58 -210 77
-340 71 -167 -8 -307 -67 -432 -180 -56 -51 -137 -163 -162 -225 l-13 -32
-634 0 -634 0 0 465 0 465 598 0 597 0 32 -63 c70 -134 174 -236 308 -302 103
-51 183 -69 305 -69 205 1 360 70 504 225 195 211 232 517 94 782 -76 145
-231 276 -390 327 l-38 12 0 849 0 849 623 -2 622 -3 3 -821z m192 -7039 c0
-41 -1 -75 -2 -75 -27 2 -154 52 -156 62 -2 11 125 85 151 87 4 1 7 -33 7 -74z
m-1611 -34 l54 -28 -48 -17 c-71 -24 -75 -22 -75 29 0 25 3 45 8 45 4 -1 31
-14 61 -29z m1091 -300 l325 -98 0 -434 0 -434 -622 -3 -623 -2 0 443 0 444
293 91 c160 50 294 91 297 91 3 0 151 -44 330 -98z m-960 -551 l0 -450 660 0
660 0 0 445 0 445 28 -6 c15 -4 50 -15 77 -24 l50 -17 0 -469 0 -469 -838 -3
-837 -2 2 472 3 472 85 27 c47 15 91 27 98 28 9 1 12 -95 12 -449z"/>
<path d="M6609 13194 c-129 -85 -225 -176 -324 -303 -45 -60 -115 -170 -115
-183 0 -5 44 -8 98 -8 53 0 102 -4 108 -8 7 -4 13 -47 16 -103 3 -78 9 -105
31 -151 85 -174 308 -244 487 -153 125 63 197 222 170 374 -29 169 -137 277
-288 289 -34 3 -64 8 -66 11 -3 4 -10 62 -17 129 -15 151 -21 157 -100 106z"/>
<path d="M8515 13208 c-2 -7 -10 -67 -17 -133 l-13 -120 -65 -8 c-159 -19
-260 -119 -291 -289 -30 -163 47 -320 190 -386 47 -23 70 -27 146 -27 78 0 99
4 152 29 73 33 144 104 175 174 15 33 23 75 26 145 l5 97 47 0 c68 0 170 12
170 20 0 3 -28 49 -62 101 -129 199 -439 464 -463 397z"/>
<path d="M6731 11441 c-93 -35 -150 -87 -193 -178 -24 -51 -31 -80 -35 -158
l-6 -95 -108 0 c-60 0 -109 -2 -109 -5 0 -18 98 -163 161 -239 79 -94 139
-150 247 -229 69 -50 99 -64 113 -50 7 7 38 221 39 266 0 4 24 7 53 7 118 0
212 62 269 178 31 63 33 73 32 172 0 125 -17 172 -89 249 -62 67 -127 93 -235
98 -67 3 -97 -1 -139 -16z"/>
<path d="M8350 11429 c-111 -22 -190 -85 -239 -189 -23 -48 -26 -68 -26 -160
0 -93 3 -112 27 -162 53 -114 163 -188 278 -188 33 0 50 -4 50 -12 0 -17 19
-185 25 -225 3 -17 12 -34 20 -37 22 -8 155 85 245 171 95 90 162 171 225 274
l46 74 -111 5 -111 5 -3 80 c-6 183 -84 299 -234 351 -53 18 -140 24 -192 13z"/>
<path d="M12818 4232 c-37 -31 -67 -64 -67 -73 -1 -8 35 -139 78 -290 43 -150
78 -275 77 -276 -1 -2 -123 53 -271 121 -258 119 -270 124 -290 108 -114 -91
-157 -139 -95 -107 40 21 60 19 91 -8 28 -23 313 -354 342 -397 23 -33 21 -62
-4 -94 -39 -50 -14 -35 79 46 51 44 91 83 88 85 -3 3 -11 1 -19 -5 -33 -28
-65 -32 -91 -11 -23 18 -312 348 -329 376 -4 7 32 -6 80 -29 366 -169 493
-225 498 -219 2 5 -34 142 -81 306 -47 164 -83 299 -82 301 5 4 309 -352 325
-380 18 -31 16 -41 -13 -75 -14 -17 -21 -31 -16 -31 15 0 222 179 222 192 0 5
-13 0 -29 -11 -58 -42 -60 -40 -286 224 -76 88 -145 173 -155 188 -20 32 -17
58 11 83 19 17 25 34 12 34 -5 -1 -38 -27 -75 -58z"/>
<path d="M2065 3963 c-307 -153 -352 -169 -399 -148 -37 16 -11 -15 64 -79 41
-35 79 -62 83 -59 5 3 -1 15 -12 27 -44 47 -15 83 106 131 l43 17 86 -73 c47
-41 92 -79 101 -86 13 -10 13 -19 -7 -80 -12 -37 -29 -78 -36 -90 -15 -24 -58
-31 -69 -13 -8 13 -28 13 -23 0 5 -15 201 -181 206 -175 3 2 -3 16 -12 29 -9
14 -16 41 -16 59 0 19 47 180 105 358 57 178 101 326 97 330 -4 4 -146 -63
-317 -148z m147 -100 c-24 -76 -46 -140 -48 -142 -3 -3 -167 138 -172 148 -2
7 237 129 254 130 6 1 -9 -61 -34 -136z"/>
<path d="M2670 3836 c0 -3 14 -18 31 -35 23 -24 29 -36 23 -53 -7 -24 -288
-427 -324 -465 -24 -27 -57 -29 -88 -7 -23 16 -44 12 -26 -5 19 -18 424 -301
430 -301 12 0 156 111 151 117 -3 2 -24 -5 -47 -17 -60 -31 -116 -29 -177 4
-67 37 -163 113 -163 130 0 13 274 410 313 454 24 26 73 29 103 7 22 -16 34
-19 34 -7 0 8 -242 182 -254 182 -3 0 -6 -2 -6 -4z"/>
<path d="M11930 3553 c0 -10 26 -170 57 -357 l57 -339 -21 -38 c-12 -22 -17
-39 -11 -39 18 0 183 113 171 117 -7 2 -21 -1 -33 -7 -25 -14 -56 -5 -65 18
-13 33 -33 167 -26 172 4 3 55 36 114 73 l106 69 48 -33 c65 -43 103 -80 103
-98 0 -8 -10 -25 -22 -38 -12 -13 -16 -23 -10 -23 15 0 222 132 222 142 0 3
-17 4 -38 1 -52 -7 -71 4 -377 216 -143 99 -263 181 -267 181 -5 0 -8 -8 -8
-17z m203 -231 c88 -60 106 -77 95 -86 -23 -21 -178 -119 -182 -115 -3 5 -46
260 -46 277 0 16 -1 17 133 -76z"/>
<path d="M3053 3482 c-44 -71 -48 -89 -10 -55 58 53 99 53 183 0 l52 -32 -143
-245 c-79 -135 -155 -254 -169 -264 -25 -19 -28 -19 -61 -3 -19 9 -35 12 -35
7 0 -12 240 -154 247 -146 3 3 -6 15 -21 27 -22 17 -27 29 -24 53 2 17 68 142
147 277 l144 247 51 -30 c68 -40 83 -55 96 -93 7 -23 7 -40 0 -60 -6 -16 -7
-32 -3 -36 5 -5 25 24 45 64 l36 73 -243 142 c-134 78 -245 142 -247 142 -2
-1 -22 -31 -45 -68z"/>
<path d="M11395 3236 c-38 -13 -140 -57 -225 -97 -85 -41 -201 -92 -257 -114
-97 -38 -137 -63 -75 -49 15 4 29 7 32 6 31 0 42 -7 56 -34 23 -44 162 -402
158 -406 -2 -3 -488 269 -559 313 -17 10 -33 7 -102 -20 -46 -17 -86 -34 -89
-38 -4 -4 16 -6 44 -6 41 1 112 -15 112 -25 0 -1 43 -112 95 -246 52 -134 95
-257 95 -272 0 -22 -8 -33 -37 -50 -20 -12 -32 -23 -26 -25 15 -5 223 77 223
87 0 6 -12 5 -27 -1 -38 -14 -70 -3 -87 30 -27 51 -168 422 -163 427 2 3 139
-71 303 -165 165 -93 306 -171 314 -173 21 -4 22 -8 -101 309 -60 155 -109
291 -109 302 0 27 32 55 79 71 62 20 84 9 119 -62 106 -215 211 -440 213 -455
5 -30 -10 -59 -36 -71 -14 -6 -25 -16 -25 -21 0 -11 88 28 255 112 128 64 189
114 230 188 27 49 30 62 30 149 0 82 -4 103 -27 152 -57 123 -176 208 -288
208 -30 -1 -86 -11 -125 -24z m152 -66 c91 -39 180 -175 190 -291 13 -142 -64
-250 -211 -294 l-44 -13 -127 264 c-144 299 -141 280 -47 326 84 40 157 43
239 8z"/>
<path d="M3650 3235 c0 -3 14 -18 31 -32 26 -22 30 -32 26 -57 -3 -17 -59
-142 -125 -278 -129 -266 -134 -272 -196 -248 -16 6 -32 8 -35 4 -3 -4 0 -9 8
-12 7 -2 67 -31 133 -64 66 -32 123 -57 126 -54 2 3 -10 17 -27 31 -17 15 -31
36 -31 48 0 20 204 462 238 515 18 28 56 38 87 24 14 -6 27 -8 29 -3 3 4 -51
35 -121 67 -149 70 -143 67 -143 59z"/>
<path d="M4000 3034 c-72 -31 -110 -86 -110 -159 0 -60 21 -98 120 -225 45
-58 86 -115 91 -128 18 -48 10 -83 -26 -119 -34 -34 -38 -35 -91 -31 -70 6
-130 46 -162 108 -19 37 -22 55 -18 103 3 31 2 57 -3 57 -11 0 -94 -211 -86
-218 3 -3 14 3 24 12 22 20 26 18 86 -30 70 -55 124 -78 190 -78 114 -1 186
60 193 164 5 74 -7 100 -109 225 -127 155 -143 202 -90 256 24 24 38 29 78 29
57 0 99 -23 139 -76 25 -32 29 -47 30 -108 1 -39 3 -75 4 -81 1 -5 21 41 46
104 25 62 42 116 39 119 -3 3 -13 -2 -23 -11 -20 -18 -30 -14 -106 47 -68 54
-149 69 -216 40z"/>
<path d="M4522 2829 c-75 -37 -112 -115 -91 -191 13 -51 46 -100 129 -193 35
-38 71 -83 81 -100 35 -56 17 -139 -36 -163 -66 -30 -164 2 -219 71 -27 34
-31 47 -33 110 -1 40 -3 74 -3 77 -3 22 -80 -188 -80 -218 0 -12 4 -12 19 2
22 20 33 16 110 -39 94 -67 185 -79 271 -35 55 28 83 73 88 140 5 75 -10 108
-100 210 -113 129 -138 167 -138 210 0 77 81 118 161 83 86 -38 133 -126 116
-213 -4 -16 -2 -32 2 -35 11 -6 86 213 77 222 -4 4 -12 1 -18 -5 -19 -19 -37
-14 -78 18 -89 70 -180 87 -258 49z"/>
<path d="M10040 2725 c-107 -29 -214 -58 -237 -64 -55 -15 -55 -27 0 -23 29 3
47 -1 55 -11 18 -22 153 -536 150 -571 -2 -25 -11 -35 -41 -50 -21 -10 -36
-20 -33 -23 5 -5 508 126 517 136 9 9 17 181 8 181 -4 0 -14 -23 -23 -51 -33
-101 -48 -113 -200 -154 -85 -23 -100 -25 -113 -13 -17 18 -86 270 -75 279 14
13 173 50 200 47 19 -2 35 -15 52 -42 35 -54 36 -27 5 91 -31 114 -45 136 -45
72 0 -31 -6 -51 -17 -62 -23 -19 -203 -71 -213 -60 -8 9 -73 254 -68 258 2 2
58 17 126 34 139 35 160 32 193 -24 20 -33 47 -50 36 -22 -2 6 -12 38 -21 70
-14 48 -20 57 -39 56 -12 0 -110 -24 -217 -54z"/>
<path d="M4963 2724 c3 -3 20 -13 39 -22 23 -12 34 -25 36 -44 3 -26 -103
-452 -134 -536 -17 -45 -43 -59 -89 -48 -14 4 -25 2 -25 -3 0 -6 19 -15 43
-21 23 -6 84 -23 135 -36 104 -28 136 -27 77 2 -30 14 -41 26 -43 46 -3 27
121 516 141 553 22 44 60 46 132 7 41 -23 51 -33 53 -58 2 -18 -20 -150 -47
-295 -56 -294 -62 -307 -128 -294 -18 3 -33 2 -33 -3 0 -6 51 -19 113 -31 129
-24 127 -24 127 -11 0 6 -8 10 -18 10 -33 0 -62 29 -62 62 0 27 70 411 87 478
4 18 29 -67 83 -285 42 -170 80 -310 86 -309 5 0 90 113 188 252 99 139 181
250 184 248 5 -5 -75 -428 -89 -474 -12 -38 -40 -56 -80 -50 -16 3 -29 1 -29
-4 0 -4 1 -8 3 -8 1 0 66 -13 145 -29 78 -15 142 -24 142 -20 0 4 -10 11 -22
15 -36 10 -58 35 -58 63 0 31 87 492 102 539 11 37 45 56 84 46 13 -3 24 -2
24 4 0 8 -152 42 -187 42 -5 0 -85 -108 -178 -239 -96 -136 -173 -235 -176
-228 -3 7 -37 137 -75 289 l-68 277 -96 17 c-52 9 -97 21 -100 25 -6 8 -257
79 -281 79 -7 0 -10 -3 -6 -6z"/>
<path d="M9440 2579 c-135 -27 -247 -49 -249 -49 -3 0 4 -61 16 -127 3 -18 9
-33 14 -33 5 0 9 15 9 33 0 17 9 46 19 64 17 27 29 34 96 48 42 10 77 16 79
14 12 -14 108 -570 103 -591 -5 -19 -17 -30 -42 -38 -60 -20 -38 -28 35 -14
39 7 99 18 133 25 82 16 104 28 51 29 -26 0 -47 6 -57 18 -10 11 -34 114 -66
282 -28 146 -53 275 -56 287 -4 19 1 23 46 32 104 23 155 8 179 -49 7 -17 16
-30 21 -30 12 0 12 -1 -7 81 -15 68 -16 69 -47 68 -18 -1 -142 -23 -277 -50z"/>
<path d="M9018 2497 c-79 -9 -107 -27 -45 -27 59 0 65 -17 93 -241 14 -112 23
-212 22 -222 -2 -13 -69 46 -243 212 -148 142 -246 229 -255 226 -8 -2 -48 -7
-88 -11 -69 -6 -111 -24 -57 -24 28 0 80 -21 108 -43 14 -12 23 -61 47 -258
36 -299 37 -313 8 -333 -12 -9 -33 -16 -45 -16 -13 0 -23 -4 -23 -10 0 -13 13
-12 138 4 105 14 142 26 83 26 -39 0 -66 13 -76 37 -6 17 -66 475 -62 479 1 1
119 -110 262 -247 143 -137 264 -249 269 -249 5 0 6 19 3 43 -40 294 -70 600
-61 614 11 17 20 23 64 41 22 10 20 11 -20 10 -25 0 -80 -5 -122 -11z"/>
<path d="M6369 2447 c-103 -29 -181 -97 -228 -197 -37 -81 -42 -221 -10 -305
30 -81 113 -164 189 -191 85 -29 191 -25 260 10 108 54 171 136 196 257 27
130 -2 242 -86 333 -78 85 -212 123 -321 93z m169 -42 c87 -37 124 -102 130
-233 11 -243 -82 -402 -235 -402 -52 0 -118 26 -145 56 -10 11 -28 42 -40 69
-20 43 -23 66 -22 160 0 128 17 198 66 271 58 86 154 117 246 79z"/>
<path d="M8013 2402 c-170 -61 -260 -214 -233 -399 18 -129 89 -231 199 -281
82 -38 193 -38 272 1 67 32 142 109 172 175 18 39 22 65 22 157 0 99 -3 115
-27 165 -77 156 -254 236 -405 182z m183 -38 c80 -38 131 -148 141 -304 13
-199 -74 -330 -220 -330 -129 0 -211 115 -224 315 -10 156 35 272 120 314 51
26 135 28 183 5z"/>
<path d="M7338 2387 c-108 -41 -178 -109 -220 -215 -17 -44 -22 -78 -22 -147
0 -80 3 -97 30 -155 62 -130 158 -190 302 -190 87 1 136 15 188 55 38 29 98
105 89 113 -3 3 -31 -20 -63 -50 -68 -65 -112 -82 -196 -76 -104 9 -166 51
-208 143 -32 68 -33 252 -3 333 47 127 150 188 275 161 42 -9 63 -21 100 -58
27 -27 53 -65 60 -87 20 -62 30 -63 30 -3 0 78 -12 189 -20 189 -4 0 -12 -11
-18 -25 -14 -31 -31 -31 -85 -3 -53 27 -184 35 -239 15z"/>
</g>
</svg>
